<?xml version="1.0" encoding="utf-8"?>
<!-- Generator: Adobe Illustrator 17.0.0, SVG Export Plug-In . SVG Version: 6.00 Build 0)  -->
<!DOCTYPE svg PUBLIC "-//W3C//DTD SVG 1.1//EN" "http://www.w3.org/Graphics/SVG/1.1/DTD/svg11.dtd">
<svg version="1.1" id="Capa_1" xmlns="http://www.w3.org/2000/svg" xmlns:xlink="http://www.w3.org/1999/xlink" x="0px" y="0px"
	 width="200px" height="200px" viewBox="0 0 200 200" enable-background="new 0 0 200 200" xml:space="preserve">
<path d="M193.459,180.338c-0.042-0.604-0.245-1.056-0.505-1.44c-0.041-0.977-0.693-2.002-1.921-2.164
	c-4.939-0.652-9.959-1.022-15.006-1.285c0.813-2.499,0.769-5.264,0.867-8.053c0.161-4.575,0.748-9.551,0.278-14.178
	c0.491,0.092,0.973,0.196,1.467,0.283c1.763,0.312,2.551-1.985,1.107-2.749c8.394-1.67,16.631-9.106,4.777-15.262
	c-28.582-14.844-61.705-20.858-93.746-20.736c-18.316,0.069-37.087,6.328-53.91,12.889c-0.429,0.167-0.929,0.353-1.388,0.527
	c1.842-2.575,2.122-6.724,1.736-9.616c-0.06-0.447-0.247-0.793-0.487-1.059c7.699,0.509,14.39-2.958,22.805-4.598
	c19.88-3.875,39.711-6.761,59.986-5.992c12.542,0.475,27.8,8.901,41.129,10.206c-0.404,2.139-0.139,4.515-0.3,6.648
	c-0.149,1.97,2.877,2.289,3.374,0.457c0.581-2.14,1.323-4.65,1.073-6.944c6.549-0.186,12.472-2.625,17.153-9.314
	c0.862-1.232,0.088-2.604-1.038-3.201c0.091-0.773-0.208-1.557-1.152-2.011c-13.327-6.401-25.997-11.302-38.605-14.605
	c0.852-1.1,0.841-3.271,0.463-4.763c0.157,0.061,0.309,0.115,0.467,0.177c1.012,0.395,1.727-0.063,2.081-0.779
	c0.323,0.09,0.668,0.133,1.046,0.048c13.035-2.909,22.794-14.791,10.833-25.72c-5.876-5.369-16.438-6.995-23.633-9.727
	c-6.795-2.581-20.061-6.196-22.597-14.363c-1.847-5.946-6.058-10.207-7.816-16.218c-0.079-0.269-0.242-0.457-0.397-0.651
	c2.28-0.586,3.447-4.022,2.852-6.168c-0.145-0.523-0.602-0.809-1.097-0.949c-0.812-3.926-7.033-5.5-9.458-2.155
	c-2.291,3.16,0.211,8.852,3.764,9.741c-0.067,0.234-0.106,0.487-0.077,0.778c0.138,0.866,0.223,1.734,0.268,2.604
	c-0.628,0.666-5.478,3.768-6.23,4.4c-3.246,2.725-5.272,7.427-7.251,11.018c-4.851,8.804-10.496,13.812-20.191,17.246
	c-4.773,1.691-9.92,1.738-14.717,3.516c-14.622,5.419-5.436,20.51,4.212,24.948c-0.052,0.577,0.395,1.137,1.148,1.017
	c0.096-0.015,0.193-0.041,0.29-0.057c-0.08,0.777-0.081,1.584-0.096,2.4c-0.042,2.208-0.002,4.491,0.333,6.683
	c-11.608,2.57-25.995,6.346-30.783,14.52c-4.331,7.393,2.459,12.206,9.044,13.563c-0.339,1.415-0.316,2.849-0.366,4.348
	c-0.06,1.805-0.222,3.575-0.222,5.366c0,0.043,0.027,0.08,0.035,0.121c-7.947,2.967-18.547,6.888-23.995,12.336
	c-7.994,7.994,3.848,13.474,11.86,13.385c-0.021,0.227-0.044,0.453,0.013,0.721c0.261,1.207,0.475,2.429,0.706,3.645
	c-0.025,0.06-0.081,0.072-0.102,0.138c-1.014,3.347-0.761,6.682-0.518,10.136c0.163,2.323,0.069,4.688,0.179,7.021
	c-4.36-0.047-8.617-0.334-12.643-1.145c-0.67-0.135-1.247,0.217-1.573,0.711c-0.128,0.109-0.267,0.193-0.365,0.361
	c-1.156,1.963-0.368,4.253-0.097,6.416c0.28,2.236,0.582,4.464,0.998,6.677c-1.995,0.464-2.08,3.442,0.2,3.492
	c60.959,1.359,121.928-0.54,182.86,1.866c1.352,0.053,2.146-1.089,2.286-2.286C193.354,188.393,193.75,184.529,193.459,180.338z
	 M96.979,9.125c0.705-1.509,3.28,0.107,4.563,0.861c-0.137,0.898-0.209,1.776-0.424,2.661c-0.205,0.844-0.961,1.446-1.506,2.079
	C97.843,13.385,96.018,11.184,96.979,9.125z M54.571,80.056c-2.312-2.862-4.815-5.492-6.971-8.501
	c-7.701-10.748,7.346-12.822,11.843-13.6c6.245-1.08,11.795-2.967,17.33-6.024c11.053-6.103,13.449-20.006,23.43-27.09
	c0.192-0.136,0.345-0.291,0.494-0.447c2.272,4.308,4.686,8.446,6.1,13.488c1.324,4.722,8.148,7.853,11.98,9.775
	c6.413,3.217,12.884,5.955,19.615,8.45c3.797,1.407,7.489,2.53,11.189,4.27c6.335,7.288,6.114,12.488-0.665,15.6
	c-1.794,0.964-3.579,1.943-5.357,2.935c-0.296,0.164-0.513,0.367-0.681,0.59C120.641,63.495,76.822,63.878,54.571,80.056z
	 M138.293,87.399c-9.04-2.189-18.07-3.555-27.306-3.936c0.043-0.15,0.15-0.26,0.14-0.44c-0.099-1.84-0.109-3.679-0.066-5.521
	c0.026-1.104,0.154-2.193-0.061-3.186c9.168,1.363,18.064,4.302,27.321,7.817c-0.12,0.118-0.274,0.199-0.353,0.354
	C137.182,84.038,137.34,85.927,138.293,87.399z M94.121,74.063c-0.042-0.142-0.151-0.206-0.222-0.317
	c4.305-0.395,8.469-0.365,12.555-0.005c-0.564,1.347-0.199,3.001-0.01,4.481c0.233,1.827,0.705,3.521,1.563,5.129
	c-4.567-0.085-9.17-0.021-13.876,0.376C94.759,80.52,94.969,76.918,94.121,74.063z M90.438,84.075
	c-7.725,0.856-15.678,2.346-23.992,4.578c-2.264,0.608-5.159,1.224-8.349,1.914c0.557-1.689,0.867-3.5,1.063-5.245
	c0.153-1.36,0.476-2.764,0.318-4.09c8.825-1.798,17.729-4.506,26.539-6.326c1.867-0.386,3.675-0.605,5.486-0.835
	C90.561,76.989,90.111,80.748,90.438,84.075z M47.467,97.735c4.485-1.211,8.959-2.457,13.424-3.738
	c9.944-2.813,19.905-5.478,30.079-7.109c0.444,1.093,2.067,1.038,2.413-0.125c0.016-0.056,0.028-0.123,0.044-0.18
	c2.502-0.357,5.002-0.722,7.534-0.932c27.083-2.25,52.315,9.594,75.928,20.853c-11.671,10.597-36.752-1.039-49.268-3.481
	c-10.077-1.966-20.708-1.062-30.848-0.299c-10.324,0.777-20.635,2.652-30.848,4.251c-9.499,1.487-21.195,7.371-31.148,7.888
	C30.541,103.68,34.705,97.928,47.467,97.735z M20.869,138.452c5.559-2.313,11.886-5.151,16.984-7.234
	c19.348-7.906,39.745-11.572,60.505-13.009c17.548-1.214,35.762,3.938,52.541,8.559c5.998,1.652,11.863,3.649,17.729,5.706
	c8.037,2.819,21.664,13.731,7.181,16.491c-0.265,0.05-0.423,0.201-0.551,0.367c-25.132-7.594-48.308-15.25-75.031-15.238
	c-26.904,0.013-53.302,4.549-76.624,17.992c-0.109,0.063-0.12,0.168-0.199,0.246C13.544,151.237,10.403,142.807,20.869,138.452z
	 M116.789,167.045c-0.012-1.401,1.392-14.165,4.462-9.62c2.277,3.371,2.234,8.828,2.536,12.729c0.122,1.571-0.208,4.248,0.006,6.422
	c-2.461,0.141-4.912,0.28-7.357,0.415C117.218,173.897,116.815,170.177,116.789,167.045z M127.278,176.379
	c-0.01-0.678-0.052-1.35-0.047-1.905c0.031-3.033-0.071-6.064-0.337-9.086c-0.35-3.972-1.265-10.163-5.335-12.139
	c-4.809-2.333-7.65,3.446-8.171,7.172c-0.733,5.246-0.141,11.564,1.508,16.652c-2.443,0.132-4.879,0.259-7.3,0.37
	c-0.321-6.764,1.378-28.673-9.369-26.979c-9.591,1.512-7.987,20.001-7.42,26.705c0.022,0.256,0.167,0.398,0.275,0.577
	c-1.734-0.022-3.469-0.032-5.201-0.077c0.315-1.541,0.25-3.275,0.361-4.738c0.263-3.458,0.393-6.923,0.288-10.39
	c-0.122-4.014-0.301-10.779-5.245-11.903c-11.655-2.65-7.504,21.186-5.424,26.639c-6.492-0.354-12.982-0.828-19.485-1.405
	c-10.293-0.914-21.673,0.465-32.523,0.584c0.401-1.835,0.522-3.753,0.676-5.617c0.173-2.09,0.335-4.202,0.38-6.312
	c0.001-0.004,0.004-0.005,0.004-0.005c0.459-3.154,0.236-6.37-0.013-9.531c-0.019-0.246-0.104-0.432-0.176-0.63
	c11.26-2.625,21.096-8.336,32.498-10.922c14.11-3.199,28.575-4.495,43.001-5.068c26.37-1.047,47.898,8.692,72.427,13.946
	c-1.023,3.868-0.096,8.48-0.161,12.404c-0.058,3.497,0.43,7.058,0.352,10.578C157.8,174.723,142.431,175.514,127.278,176.379z
	 M104.201,177.599c-0.337,0.014-0.679,0.033-1.016,0.046c-3.343,0.13-6.677,0.153-10.009,0.133c0.115-0.185,0.263-0.337,0.284-0.608
	c0.516-6.739-0.491-17.246,4.355-22.597c3.755-4.147,5.407,10.265,5.54,11.617C103.731,169.98,103.694,173.822,104.201,177.599z
	 M82.689,177.584c-1.59-0.057-3.181-0.109-4.771-0.187c0.047-0.165,0.131-0.308,0.1-0.516c-0.558-3.74-0.581-7.732-0.536-11.504
	c0.012-1.01,1.202-12.469,3.631-10.223c2.706,2.503,2.02,9.449,2.003,12.717C83.102,170.674,82.218,174.585,82.689,177.584z
	 M174.336,189.165c-7.996-0.785-16.09-0.446-24.109-0.438c-16.08,0.015-32.165,0.144-48.244-0.074
	c-30.271-0.412-62.08-3.066-92.229,0.561c0.33-2.127,0.42-4.241,0.399-6.403c-0.011-1.193,0.097-2.534-0.021-3.799
	c7.347,2.283,15.962,0.142,23.514-0.156c17.823-0.703,36.096,2.989,53.963,3.517c33.498,0.991,67.156-3.932,100.652-1.74
	c0.006,0.143-0.036,0.258-0.011,0.411C190.168,192.803,183.477,190.063,174.336,189.165z"/>
</svg>
